<?xml version="1.0" encoding="UTF-8" standalone="no"?>
<!-- Created with Inkscape (http://www.inkscape.org/) -->

<svg
   width="69.75898mm"
   height="45.04937mm"
   viewBox="0 0 69.75898 45.04937"
   version="1.1"
   id="svg1"
   inkscape:version="1.3.2 (091e20e, 2023-11-25, custom)"
   sodipodi:docname="Burger Pictures Master.svg"
   xml:space="preserve"
   inkscape:export-filename="Working Version\images\topk.png"
   inkscape:export-xdpi="96"
   inkscape:export-ydpi="96"
   xmlns:inkscape="http://www.inkscape.org/namespaces/inkscape"
   xmlns:sodipodi="http://sodipodi.sourceforge.net/DTD/sodipodi-0.dtd"
   xmlns:xlink="http://www.w3.org/1999/xlink"
   xmlns="http://www.w3.org/2000/svg"
   xmlns:svg="http://www.w3.org/2000/svg"><sodipodi:namedview
     id="namedview1"
     pagecolor="#ffffff"
     bordercolor="#eeeeee"
     borderopacity="1"
     inkscape:showpageshadow="0"
     inkscape:pageopacity="0"
     inkscape:pagecheckerboard="0"
     inkscape:deskcolor="#d1d1d1"
     inkscape:document-units="mm"
     inkscape:zoom="2.8080567"
     inkscape:cx="1610.0102"
     inkscape:cy="-220.97132"
     inkscape:window-width="3200"
     inkscape:window-height="1261"
     inkscape:window-x="-9"
     inkscape:window-y="-9"
     inkscape:window-maximized="1"
     inkscape:current-layer="layer1"
     inkscape:lockguides="true" /><defs
     id="defs1"><linearGradient
       id="linearGradient94"
       inkscape:collect="always"><stop
         style="stop-color:#c6993e;stop-opacity:1;"
         offset="0.37864986"
         id="stop92" /><stop
         style="stop-color:#d1ad56;stop-opacity:1;"
         offset="0.60037762"
         id="stop93" /><stop
         style="stop-color:#a07700;stop-opacity:1;"
         offset="1"
         id="stop94" /></linearGradient><radialGradient
       inkscape:collect="always"
       xlink:href="#linearGradient94"
       id="radialGradient81-6"
       cx="427.95563"
       cy="-80.696236"
       fx="427.95563"
       fy="-80.696236"
       r="34.573353"
       gradientTransform="matrix(2.3852092,0.39322754,-0.11118457,0.99373296,-606.64836,-162.39275)"
       gradientUnits="userSpaceOnUse" /></defs><g
     inkscape:label="Layer 1"
     inkscape:groupmode="layer"
     id="layer1"
     transform="translate(-398.04774,87.356389)"><path
       id="path1-3-8"
       style="vector-effect:none;fill:url(#radialGradient81-6);stroke-width:2.34763;stop-color:#000000"
       d="m 428.57504,-42.30747 c -26.88402,0.0574 -30.292,-5.411603 -30.42321,-7.897823 -0.79794,-15.119368 2.95829,-23.841525 12.42661,-30.850225 11.38434,-8.42699 33.51376,-8.31404 45.07253,-0.18371 10.08311,7.09238 13.57718,17.969733 11.64697,32.614331 -0.24741,1.87714 -4.1528,6.661596 -33.7897,6.295687"
       sodipodi:nodetypes="cssssc"
       inkscape:export-filename="Working Version\images\bunt.svg"
       inkscape:export-xdpi="96"
       inkscape:export-ydpi="96" /><path
       id="path3-0-9"
       style="vector-effect:none;fill:#ffe9a6;stroke-width:1.12379"
       d="m 419.38737,-75.608588 c -0.69479,0.99294 -3.40147,3.37689 -4.14829,2.45307 -0.74681,-0.92381 0.74906,-4.80554 1.44386,-5.79848 0.69481,-0.99295 1.86346,-1.049 2.61027,-0.12519 0.74682,0.92381 0.78897,2.47764 0.0942,3.4706 z"
       sodipodi:nodetypes="sssss" /><path
       id="path3-4-36-4"
       style="vector-effect:none;fill:#ffe9a6;stroke-width:1.12379"
       d="m 424.2351,-66.651408 c 0.58203,-1.11377 3.00749,-3.98338 3.84517,-3.20951 0.83768,0.77387 -0.22962,4.89815 -0.81165,6.01193 -0.58204,1.11378 -1.73294,1.38933 -2.57062,0.61546 -0.83769,-0.77386 -1.04494,-2.3041 -0.4629,-3.41788 z"
       sodipodi:nodetypes="sssss" /><path
       id="path3-4-8-5-3"
       style="vector-effect:none;fill:#ffe9a6;stroke-width:1.12379"
       d="m 407.94251,-62.205888 c -0.76921,-0.89069 -2.65016,-4.40921 -1.98027,-5.43197 0.6699,-1.02276 3.63697,0.83753 4.4062,1.72822 0.76923,0.89069 0.84975,2.44185 0.17986,3.46461 -0.6699,1.022758 -1.83655,1.129828 -2.60579,0.23914 z"
       sodipodi:nodetypes="sssss" /><path
       id="path3-3-92-2"
       style="vector-effect:none;fill:#ffe9a6;stroke-width:1.12379"
       d="m 432.49518,-82.477638 c 0.95536,0.47524 3.6452,2.89265 3.28777,4.16289 -0.35743,1.27025 -3.62677,0.91231 -4.58214,0.43707 -0.95536,-0.47523 -1.44009,-1.89022 -1.08266,-3.16047 0.35744,-1.27024 1.42167,-1.91473 2.37703,-1.43949 z"
       sodipodi:nodetypes="sssss" /><path
       id="path3-3-9-5-6"
       style="vector-effect:none;fill:#ffe9a6;stroke-width:1.1918"
       d="m 447.27369,-74.793148 c -1.04211,-0.467 -4.02193,-2.91533 -3.69345,-4.26118 0.32848,-1.34584 3.84087,-1.07957 4.88297,-0.61257 1.04211,0.46702 1.6206,1.93665 1.29215,3.28248 -0.32848,1.34584 -1.43955,2.05829 -2.48167,1.59127 z"
       sodipodi:nodetypes="sssss" /><path
       id="path3-3-9-9-1-6"
       style="vector-effect:none;fill:#ffe9a6;stroke-width:1.1918"
       d="m 441.40253,-65.418688 c -0.85841,-0.91391 -3.02591,-4.5726 -2.37019,-5.68702 0.65574,-1.11441 3.88637,0.73742 4.7448,1.65134 0.85843,0.91392 1.02272,2.55823 0.36701,3.67263 -0.65572,1.11442 -1.88318,1.27696 -2.74162,0.36305 z"
       sodipodi:nodetypes="sssss" /><path
       id="path3-3-9-9-4-36-8"
       style="vector-effect:none;fill:#ffe9a6;stroke-width:1.01523"
       d="m 456.12264,-64.433968 c -0.65937,-0.88476 -2.22508,-4.26213 -1.58838,-5.12011 0.63671,-0.85799 3.23471,1.12828 3.89405,2.01306 0.65937,0.88477 0.67772,2.29757 0.0412,3.15555 -0.6367,0.858 -1.68737,0.83629 -2.34672,-0.0485 z"
       sodipodi:nodetypes="sssss" /></g></svg>
