<?xml version="1.0" encoding="UTF-8" standalone="no"?>
<!-- Created with Inkscape (http://www.inkscape.org/) -->

<svg
   width="70.375221mm"
   height="65.462868mm"
   viewBox="0 0 70.375221 65.462868"
   version="1.1"
   id="svg1"
   inkscape:version="1.3.2 (091e20e, 2023-11-25, custom)"
   sodipodi:docname="Burger Pictures Master.svg"
   xml:space="preserve"
   inkscape:export-filename="Working Version\images\topk.png"
   inkscape:export-xdpi="96"
   inkscape:export-ydpi="96"
   xmlns:inkscape="http://www.inkscape.org/namespaces/inkscape"
   xmlns:sodipodi="http://sodipodi.sourceforge.net/DTD/sodipodi-0.dtd"
   xmlns:xlink="http://www.w3.org/1999/xlink"
   xmlns="http://www.w3.org/2000/svg"
   xmlns:svg="http://www.w3.org/2000/svg"><sodipodi:namedview
     id="namedview1"
     pagecolor="#ffffff"
     bordercolor="#eeeeee"
     borderopacity="1"
     inkscape:showpageshadow="0"
     inkscape:pageopacity="0"
     inkscape:pagecheckerboard="0"
     inkscape:deskcolor="#d1d1d1"
     inkscape:document-units="mm"
     inkscape:zoom="0.35100709"
     inkscape:cx="1264.9317"
     inkscape:cy="650.984"
     inkscape:window-width="2560"
     inkscape:window-height="991"
     inkscape:window-x="1009"
     inkscape:window-y="2151"
     inkscape:window-maximized="1"
     inkscape:current-layer="layer1"
     inkscape:lockguides="true" /><defs
     id="defs1"><linearGradient
       id="linearGradient81"
       inkscape:collect="always"><stop
         style="stop-color:#c6993e;stop-opacity:1;"
         offset="0.24950919"
         id="stop79" /><stop
         style="stop-color:#d1ad56;stop-opacity:1;"
         offset="0.60037762"
         id="stop80" /><stop
         style="stop-color:#b08e2b;stop-opacity:1;"
         offset="1"
         id="stop81" /></linearGradient><linearGradient
       id="linearGradient75"
       inkscape:collect="always"><stop
         style="stop-color:#c2973a;stop-opacity:1;"
         offset="0"
         id="stop72" /><stop
         style="stop-color:#c79b3b;stop-opacity:1;"
         offset="0.2711713"
         id="stop73" /><stop
         style="stop-color:#d4b362;stop-opacity:1;"
         offset="0.8268553"
         id="stop74" /><stop
         style="stop-color:#d5b65b;stop-opacity:1;"
         offset="1"
         id="stop75" /></linearGradient><linearGradient
       id="linearGradient69"
       inkscape:collect="always"><stop
         style="stop-color:#cfa956;stop-opacity:1;"
         offset="0"
         id="stop70" /><stop
         style="stop-color:#b08c39;stop-opacity:1;"
         offset="1"
         id="stop71" /></linearGradient><linearGradient
       inkscape:collect="always"
       xlink:href="#linearGradient75"
       id="linearGradient52"
       gradientUnits="userSpaceOnUse"
       gradientTransform="matrix(0.39903658,0,0,0.68311065,390.27034,249.2917)"
       x1="109.4851"
       y1="188.85298"
       x2="109.94736"
       y2="226.81331" /><radialGradient
       inkscape:collect="always"
       xlink:href="#linearGradient69"
       id="radialGradient71"
       cx="433.29059"
       cy="335.78818"
       fx="433.29059"
       fy="335.78818"
       r="35.701653"
       gradientTransform="matrix(0.96812506,0,0,0.31078665,12.926114,273.27438)"
       gradientUnits="userSpaceOnUse" /><radialGradient
       inkscape:collect="always"
       xlink:href="#linearGradient81"
       id="radialGradient81"
       cx="426.69788"
       cy="-83.781143"
       fx="426.69788"
       fy="-83.781143"
       r="34.573353"
       gradientTransform="matrix(1.3805935,0.14268685,-0.06313572,0.79648766,-171.01569,358.47124)"
       gradientUnits="userSpaceOnUse" /></defs><g
     inkscape:label="Layer 1"
     inkscape:groupmode="layer"
     id="layer1"
     transform="translate(-397.4315,-341.54638)"><path
       id="path1-2-4"
       style="vector-effect:none;fill:url(#linearGradient52);stroke-width:1.8895;stop-color:#000000"
       d="m 397.8819,377.17466 c -2.20913,25.1672 2.81952,29.91659 35.21107,29.8335 31.46171,-0.0807 36.1963,-5.15426 33.84335,-29.2685"
       sodipodi:nodetypes="csc"
       inkscape:export-filename="Working Version\images\bun2.svg"
       inkscape:export-xdpi="96"
       inkscape:export-ydpi="96" /><ellipse
       style="font-variation-settings:normal;fill:url(#radialGradient71);stroke:none;stroke-width:1.9749;stroke-linecap:butt;stroke-linejoin:miter;stroke-miterlimit:4;stroke-dasharray:none;stroke-dashoffset:0;stroke-opacity:1"
       id="path62-4"
       cx="432.40561"
       cy="377.6329"
       rx="34.563663"
       ry="11.095596" /><path
       id="path1-3"
       style="vector-effect:none;fill:url(#radialGradient81);stroke-width:2.34763;stop-color:#000000"
       d="m 428.57504,386.59531 c -26.88402,0.0574 -30.292,-11.00816 -30.42321,-13.49438 -0.79794,-15.11937 2.95829,-18.24497 12.42661,-25.25367 11.38434,-8.42699 33.51376,-8.31404 45.07253,-0.18371 10.08311,7.09238 13.57718,11.70692 11.64697,26.35152 -0.24741,1.87714 -5.94304,12.64174 -33.7897,12.5585"
       sodipodi:nodetypes="cssssc"
       inkscape:export-filename="Working Version\images\bunt.svg"
       inkscape:export-xdpi="96"
       inkscape:export-ydpi="96" /><path
       id="path3-0"
       style="vector-effect:none;fill:#ffe9a6;stroke-width:1.12379"
       d="m 419.38737,353.29419 c -0.69479,0.99294 -3.40147,3.37689 -4.14829,2.45307 -0.74681,-0.92381 0.74906,-4.80554 1.44386,-5.79848 0.69481,-0.99295 1.86346,-1.049 2.61027,-0.12519 0.74682,0.92381 0.78897,2.47764 0.0942,3.4706 z"
       sodipodi:nodetypes="sssss" /><path
       id="path3-4-36"
       style="vector-effect:none;fill:#ffe9a6;stroke-width:1.12379"
       d="m 424.2351,362.25137 c 0.58203,-1.11377 3.00749,-3.98338 3.84517,-3.20951 0.83768,0.77387 -0.22962,4.89815 -0.81165,6.01193 -0.58204,1.11378 -1.73294,1.38933 -2.57062,0.61546 -0.83769,-0.77386 -1.04494,-2.3041 -0.4629,-3.41788 z"
       sodipodi:nodetypes="sssss" /><path
       id="path3-4-8-5"
       style="vector-effect:none;fill:#ffe9a6;stroke-width:1.12379"
       d="m 407.94251,366.69689 c -0.76921,-0.89069 -2.65016,-4.40921 -1.98027,-5.43197 0.6699,-1.02276 3.63697,0.83753 4.4062,1.72822 0.76923,0.89069 0.84975,2.44185 0.17986,3.46461 -0.6699,1.02276 -1.83655,1.12983 -2.60579,0.23914 z"
       sodipodi:nodetypes="sssss" /><path
       id="path3-3-92"
       style="vector-effect:none;fill:#ffe9a6;stroke-width:1.12379"
       d="m 432.49518,346.42514 c 0.95536,0.47524 3.6452,2.89265 3.28777,4.16289 -0.35743,1.27025 -3.62677,0.91231 -4.58214,0.43707 -0.95536,-0.47523 -1.44009,-1.89022 -1.08266,-3.16047 0.35744,-1.27024 1.42167,-1.91473 2.37703,-1.43949 z"
       sodipodi:nodetypes="sssss" /><path
       id="path3-3-9-5"
       style="vector-effect:none;fill:#ffe9a6;stroke-width:1.1918"
       d="m 447.27369,354.10963 c -1.04211,-0.467 -4.02193,-2.91533 -3.69345,-4.26118 0.32848,-1.34584 3.84087,-1.07957 4.88297,-0.61257 1.04211,0.46702 1.6206,1.93665 1.29215,3.28248 -0.32848,1.34584 -1.43955,2.05829 -2.48167,1.59127 z"
       sodipodi:nodetypes="sssss" /><path
       id="path3-3-9-9-1"
       style="vector-effect:none;fill:#ffe9a6;stroke-width:1.1918"
       d="m 441.40253,363.48409 c -0.85841,-0.91391 -3.02591,-4.5726 -2.37019,-5.68702 0.65574,-1.11441 3.88637,0.73742 4.7448,1.65134 0.85843,0.91392 1.02272,2.55823 0.36701,3.67263 -0.65572,1.11442 -1.88318,1.27696 -2.74162,0.36305 z"
       sodipodi:nodetypes="sssss" /><path
       id="path3-3-9-9-4-36"
       style="vector-effect:none;fill:#ffe9a6;stroke-width:1.01523"
       d="m 456.12264,364.46881 c -0.65937,-0.88476 -2.22508,-4.26213 -1.58838,-5.12011 0.63671,-0.85799 3.23471,1.12828 3.89405,2.01306 0.65937,0.88477 0.67772,2.29757 0.0412,3.15555 -0.6367,0.858 -1.68737,0.83629 -2.34672,-0.0485 z"
       sodipodi:nodetypes="sssss" /></g></svg>
