<?xml version="1.0" encoding="UTF-8" standalone="no"?>
<!-- Created with Inkscape (http://www.inkscape.org/) -->

<svg
   width="69.75898mm"
   height="39.452595mm"
   viewBox="0 0 69.75898 39.452595"
   version="1.1"
   id="svg1"
   inkscape:version="1.3.2 (091e20e, 2023-11-25, custom)"
   sodipodi:docname="Burger Pictures Master.svg"
   xml:space="preserve"
   inkscape:export-filename="Working Version\images\topk.png"
   inkscape:export-xdpi="96"
   inkscape:export-ydpi="96"
   xmlns:inkscape="http://www.inkscape.org/namespaces/inkscape"
   xmlns:sodipodi="http://sodipodi.sourceforge.net/DTD/sodipodi-0.dtd"
   xmlns:xlink="http://www.w3.org/1999/xlink"
   xmlns="http://www.w3.org/2000/svg"
   xmlns:svg="http://www.w3.org/2000/svg"><sodipodi:namedview
     id="namedview1"
     pagecolor="#ffffff"
     bordercolor="#eeeeee"
     borderopacity="1"
     inkscape:showpageshadow="0"
     inkscape:pageopacity="0"
     inkscape:pagecheckerboard="0"
     inkscape:deskcolor="#d1d1d1"
     inkscape:document-units="mm"
     inkscape:zoom="0.35100709"
     inkscape:cx="1264.9317"
     inkscape:cy="650.984"
     inkscape:window-width="2560"
     inkscape:window-height="991"
     inkscape:window-x="1009"
     inkscape:window-y="2151"
     inkscape:window-maximized="1"
     inkscape:current-layer="layer1"
     inkscape:lockguides="true" /><defs
     id="defs1"><linearGradient
       id="linearGradient81"
       inkscape:collect="always"><stop
         style="stop-color:#c6993e;stop-opacity:1;"
         offset="0.24950919"
         id="stop79" /><stop
         style="stop-color:#d1ad56;stop-opacity:1;"
         offset="0.60037762"
         id="stop80" /><stop
         style="stop-color:#b08e2b;stop-opacity:1;"
         offset="1"
         id="stop81" /></linearGradient><radialGradient
       inkscape:collect="always"
       xlink:href="#linearGradient81"
       id="radialGradient81"
       cx="426.69788"
       cy="-83.781143"
       fx="426.69788"
       fy="-83.781143"
       r="34.573353"
       gradientTransform="matrix(1.3805935,0.12496055,-0.06313572,0.69753823,-171.01569,-60.441577)"
       gradientUnits="userSpaceOnUse" /></defs><g
     inkscape:label="Layer 1"
     inkscape:groupmode="layer"
     id="layer1"
     transform="translate(-398.04774,75.263822)"><path
       id="path1-3"
       style="vector-effect:none;fill:url(#radialGradient81);stroke-width:2.19697;stop-color:#000000"
       d="m 428.57504,-35.811426 c -26.88402,0.05027 -30.292,-9.640595 -30.42321,-11.817946 -0.79794,-13.241053 2.95829,-15.97836 12.42661,-22.11635 11.38434,-7.380082 33.51376,-7.281171 45.07253,-0.160882 10.08311,6.211274 13.57718,10.252536 11.64697,23.077808 -0.24741,1.64394 -5.94304,11.071231 -33.7897,10.998324"
       sodipodi:nodetypes="cssssc" /><path
       id="path3-0"
       style="vector-effect:none;fill:#ffe9a6;stroke-width:1.12379"
       d="m 419.38737,-63.516023 c -0.69479,0.992946 -3.40147,3.376891 -4.14829,2.453079 -0.74681,-0.923811 0.74906,-4.80554 1.44386,-5.798487 0.69481,-0.992946 1.86346,-1.048995 2.61027,-0.125191 0.74682,0.923811 0.78897,2.477645 0.0942,3.470599 z"
       sodipodi:nodetypes="sssss" /><path
       id="path3-4-36"
       style="vector-effect:none;fill:#ffe9a6;stroke-width:1.12379"
       d="m 424.2351,-54.558835 c 0.58203,-1.113776 3.00749,-3.98338 3.84517,-3.20951 0.83768,0.773864 -0.22962,4.898147 -0.81165,6.011923 -0.58204,1.113784 -1.73294,1.389337 -2.57062,0.615466 -0.83769,-0.773863 -1.04494,-2.304103 -0.4629,-3.417879 z"
       sodipodi:nodetypes="sssss" /><path
       id="path3-4-8-5"
       style="vector-effect:none;fill:#ffe9a6;stroke-width:1.12379"
       d="m 407.94251,-50.113322 c -0.76921,-0.89069 -2.65016,-4.409204 -1.98027,-5.431965 0.6699,-1.022762 3.63697,0.837526 4.4062,1.728217 0.76923,0.89069 0.84975,2.441852 0.17986,3.464614 -0.6699,1.022762 -1.83655,1.129824 -2.60579,0.239134 z"
       sodipodi:nodetypes="sssss" /><path
       id="path3-3-92"
       style="vector-effect:none;fill:#ffe9a6;stroke-width:1.12379"
       d="m 432.49518,-70.385068 c 0.95536,0.475237 3.6452,2.892647 3.28777,4.162891 -0.35743,1.270245 -3.62677,0.91231 -4.58214,0.437073 -0.95536,-0.475237 -1.44009,-1.890226 -1.08266,-3.160471 0.35744,-1.270244 1.42167,-1.91473 2.37703,-1.439493 z"
       sodipodi:nodetypes="sssss" /><path
       id="path3-3-9-5"
       style="vector-effect:none;fill:#ffe9a6;stroke-width:1.1918"
       d="m 447.27369,-62.70058 c -1.04211,-0.467003 -4.02193,-2.91533 -3.69345,-4.261176 0.32848,-1.345847 3.84087,-1.079576 4.88297,-0.612574 1.04211,0.467018 1.6206,1.936656 1.29215,3.282479 -0.32848,1.345847 -1.43955,2.058289 -2.48167,1.591271 z"
       sodipodi:nodetypes="sssss" /><path
       id="path3-3-9-9-1"
       style="vector-effect:none;fill:#ffe9a6;stroke-width:1.1918"
       d="m 441.40253,-53.326122 c -0.85841,-0.913909 -3.02591,-4.572598 -2.37019,-5.687017 0.65574,-1.114412 3.88637,0.737421 4.7448,1.651345 0.85843,0.913916 1.02272,2.558221 0.36701,3.672624 -0.65572,1.114419 -1.88318,1.276964 -2.74162,0.363048 z"
       sodipodi:nodetypes="sssss" /><path
       id="path3-3-9-9-4-36"
       style="vector-effect:none;fill:#ffe9a6;stroke-width:1.01523"
       d="m 456.12264,-52.341395 c -0.65937,-0.884767 -2.22508,-4.262132 -1.58838,-5.120115 0.63671,-0.85799 3.23471,1.128286 3.89405,2.013061 0.65937,0.884774 0.67772,2.297575 0.0412,3.15555 -0.6367,0.857997 -1.68737,0.836287 -2.34672,-0.04852 z"
       sodipodi:nodetypes="sssss" /></g></svg>
