<?xml version="1.0" encoding="UTF-8" standalone="no"?>
<!-- Created with Inkscape (http://www.inkscape.org/) -->

<svg
   width="61.102631mm"
   height="55.37154mm"
   viewBox="0 0 61.102631 55.37154"
   version="1.1"
   id="svg1"
   inkscape:version="1.3.2 (091e20e, 2023-11-25, custom)"
   sodipodi:docname="Burger Pictures Master.svg"
   xml:space="preserve"
   inkscape:export-filename="Working Version\images\topk.png"
   inkscape:export-xdpi="96"
   inkscape:export-ydpi="96"
   xmlns:inkscape="http://www.inkscape.org/namespaces/inkscape"
   xmlns:sodipodi="http://sodipodi.sourceforge.net/DTD/sodipodi-0.dtd"
   xmlns="http://www.w3.org/2000/svg"
   xmlns:svg="http://www.w3.org/2000/svg"><sodipodi:namedview
     id="namedview1"
     pagecolor="#ffffff"
     bordercolor="#eeeeee"
     borderopacity="1"
     inkscape:showpageshadow="0"
     inkscape:pageopacity="0"
     inkscape:pagecheckerboard="0"
     inkscape:deskcolor="#d1d1d1"
     inkscape:document-units="mm"
     inkscape:zoom="0.35100709"
     inkscape:cx="1264.9317"
     inkscape:cy="650.984"
     inkscape:window-width="2560"
     inkscape:window-height="991"
     inkscape:window-x="1009"
     inkscape:window-y="2151"
     inkscape:window-maximized="1"
     inkscape:current-layer="layer1"
     inkscape:lockguides="true" /><defs
     id="defs1" /><g
     inkscape:label="Layer 1"
     inkscape:groupmode="layer"
     id="layer1"
     transform="translate(-401.39601,-99.738004)"><rect
       style="font-variation-settings:normal;opacity:1;fill:#f6fff7;fill-opacity:0.00765303;stroke:none;stroke-width:2.29404;stroke-linecap:butt;stroke-linejoin:miter;stroke-miterlimit:4;stroke-dasharray:none;stroke-dashoffset:0;stroke-opacity:1"
       id="rect31"
       width="175.29654"
       height="18.083529"
       x="234.27206"
       y="114.09365"
       ry="4.6260185" /><g
       id="g58"
       transform="matrix(0.83042832,0,0,0.83042832,74.325025,26.06189)"><path
         id="rect58-5"
         style="fill:#d0ecb0;fill-opacity:1;stroke-width:1.91128"
         d="m 462.15812,135.13982 c 1.60392,2.79072 2.49511,6.43301 3.26458,8.2182 0.76947,1.78518 1.94255,5.44033 2.01026,6.58351 0.0677,1.14318 -0.58679,2.55979 -0.79316,2.71843 -0.20637,0.15864 -1.49199,1.86636 -2.40724,2.24537 -0.91525,0.37901 -1.89551,0.70269 -3.16251,0.32579 -1.267,-0.3769 -9.54955,-2.54515 -9.63576,-6.86478 -0.0862,-4.31964 9.11992,-16.01725 10.72383,-13.22652 z"
         sodipodi:nodetypes="zzzzzzzz" /><path
         id="path58-6-8-8-4-3"
         style="fill:#53821f;fill-opacity:1;stroke-width:0.875416"
         d="m 462.52988,142.86889 c -1.04142,-2.48183 -26.58337,-17.20018 -28.78482,-19.5257 -3.94019,-4.16226 -12.04086,-5.83246 -17.30459,-4.14889 -5.79093,1.85221 -12.17815,-2.61803 -16.17601,-0.25418 -1.43688,0.8496 -3.62114,1.0465 -5.264,1.77943 -2.29199,1.02254 -0.32575,2.03144 -0.90626,5.03048 -0.52051,2.68915 8.11565,10.18436 15.38446,12.57095 7.26804,2.38632 10.73019,4.54633 12.49059,5.25375 3.1823,1.27879 10.79424,5.27419 12.99645,6.14521 3.54039,1.40027 13.97618,3.57361 18.92002,3.25891 8.8189,-0.56138 9.67819,-7.64588 8.64421,-10.10996 z"
         sodipodi:nodetypes="ssssssssssss" /><path
         id="path58-6-8-8-4-37-4"
         style="fill:#517e1e;fill-opacity:1;stroke-width:0.875416"
         d="m 454.94515,142.23052 c -0.1577,-2.68685 -14.29514,-20.6579 -15.5989,-23.58273 -2.3335,-5.23492 -1.82376,-11.90015 -7.34783,-12.06103 -2.33227,-0.0679 -3.70809,-1.21373 -5.10404,-1.97438 -2.24156,-1.22143 -4.11435,-2.18589 -6.922,-1.63046 -1.16777,0.23102 -2.1124,-3.903986 -4.16626,-3.946357 -0.82619,-0.01704 -2.54267,4.300557 -3.42974,4.170267 -2.4831,-0.36469 -4.73732,4.31602 -3.44967,7.21833 0.33674,0.75899 -1.02353,4.01785 -0.4997,5.81402 1.20417,4.12896 4.94297,8.23567 9.16799,11.4872 6.06233,4.66551 10.09254,2.44163 11.51791,3.69373 2.57665,2.26344 9.23336,7.30706 11.02108,8.86026 2.87405,2.497 2.64552,2.72246 7.41308,4.06817 8.50444,2.40051 7.55465,0.55062 7.39808,-2.11702 z"
         sodipodi:nodetypes="ssssssssssssss" /><path
         id="path58-6-8-8-4-37"
         style="fill:#588921;fill-opacity:1;stroke-width:0.875416"
         d="m 461.71797,132.95105 c -0.1577,-2.68685 -14.29514,-20.65791 -15.5989,-23.58274 -2.3335,-5.23491 -1.82376,-11.900147 -7.34783,-12.061025 -2.33227,-0.06792 -3.70809,-1.213738 -5.10404,-1.974388 -2.24156,-1.221426 -4.11435,-2.185882 -6.922,-1.630456 -1.63753,0.323946 -4.50375,0.678074 -7.596,0.223915 -2.4831,-0.364694 -4.73732,4.316019 -3.44967,7.218334 0.33674,0.75899 -1.02353,4.01784 -0.4997,5.81402 1.20417,4.12895 4.94297,8.23566 9.16799,11.48719 6.06233,4.66551 10.09254,2.44163 11.51791,3.69373 2.57665,2.26344 9.23336,7.30706 11.02108,8.86026 2.87405,2.49701 2.64552,2.72247 7.41308,4.06818 8.50444,2.40051 7.55465,0.55062 7.39808,-2.11702 z"
         sodipodi:nodetypes="sssssssssssss" /><path
         id="rect58-3-1"
         style="fill:#d0ecb0;fill-opacity:1;stroke-width:1.81414"
         d="m 409.29494,132.07504 c 0,0 3.50122,3.27649 8.50916,5.05378 5.00795,1.77729 12.4575,4.47229 14.66605,5.36171 6.55022,2.63785 11.34302,-1.40038 11.34302,-1.40038 l 15.95598,4.05807 c 0.47193,0.23148 0.73591,0.80128 0.59205,1.27752 l -0.21698,3.61321 c -0.0298,0.49738 -0.63994,0.67339 -1.1118,0.44207 l -15.33753,-6.37138 c 0,0 -6.67663,2.96789 -13.19463,-0.21763 -2.02728,-0.9908 -11.2159,-5.05767 -14.33716,-6.44385 -6.91404,-3.07057 -13.8411,-11.79304 -13.8411,-11.79304 z"
         sodipodi:nodetypes="czscccsccsscc" /><path
         id="path58-6-8-8-4"
         style="fill:#5d9223;fill-opacity:1;stroke-width:0.875416"
         d="m 462.43338,149.1763 c -0.1577,-2.68685 -19.35869,-25.0552 -20.66245,-27.98003 -2.3335,-5.23491 -9.41909,-9.50162 -14.94316,-9.6625 -2.33227,-0.0679 -3.70809,-1.21374 -5.10404,-1.97439 -2.24156,-1.22143 -4.11435,-2.18588 -6.922,-1.63046 -1.63753,0.32395 -4.50375,0.67808 -7.596,0.22392 -2.4831,-0.36469 -4.62318,4.39291 -3.77945,7.45389 0.78103,2.83349 2.93508,12.39964 8.99807,17.06566 6.06233,4.6655 10.09254,2.44162 11.51791,3.69373 2.57665,2.26344 9.23336,7.30706 11.02108,8.86025 2.87405,2.49701 2.64552,2.72247 7.41308,4.06818 8.50444,2.40051 20.21353,2.54939 20.05696,-0.11825 z"
         sodipodi:nodetypes="ssssssssssss" /><path
         id="rect58-3"
         style="fill:#d0ecb0;fill-opacity:1;stroke-width:1.91128"
         d="m 420.7553,120.32659 c 0,0 2.64068,1.72065 7.3915,4.74989 4.75082,3.02924 7.16061,7.16903 9.23042,8.61237 6.13873,4.28069 12.86125,9.44837 12.86125,9.44837 l 13.65687,5.25612 c 0.43234,0.35055 0.56851,0.99444 0.30549,1.44368 l -1.09145,3.62175 c -0.15024,0.49855 -0.82319,0.52872 -1.2555,0.17836 l -12.46233,-7.45791 c 0,0 -8.41321,-6.7158 -14.3872,-11.54562 -1.85808,-1.50222 -5.2677,-6.57636 -8.16188,-8.74757 -6.41102,-4.80953 -15.47878,-9.49218 -15.47878,-9.49218 z"
         sodipodi:nodetypes="czscccsccsscc" /><path
         id="path58-6-8-8"
         style="fill:#5e9e26;fill-opacity:1;stroke-width:0.88707"
         d="m 460.52438,148.48674 c -2.86665,-0.52324 -25.46951,-21.4236 -28.44468,-23.05617 -5.32501,-2.92201 -8.99934,-10.17079 -8.46269,-15.38007 0.59041,-5.73103 -3.88227,-7.64307 -2.32864,-11.795186 0.55839,-1.492327 4.49677,-2.108009 4.88338,-3.771281 0.53937,-2.320464 1.50137,-4.479216 4.53176,-5.560853 2.71726,-0.969874 11.73387,1.525179 15.9686,7.86954 1.14668,1.717921 2.25708,2.385844 2.74018,3.98808 1.30084,4.31424 0.40928,8.92436 1.2568,10.02777 2.10104,2.73539 6.66522,9.68995 8.10446,11.58541 2.31379,3.04724 3.71607,4.08906 4.54964,8.75344 0.40773,2.28156 -0.2703,5.11768 -0.29704,7.40647 -0.0708,6.05801 -0.43605,10.3099 -2.50177,9.93285 z"
         sodipodi:nodetypes="sssssssssssss" /><path
         id="rect58"
         style="opacity:1;fill:#d0ecb0;fill-opacity:1;stroke-width:1.91128"
         d="m 434.42154,104.54405 c 0,0 4.07743,5.24177 7.66952,10.27507 3.5921,5.0333 5.63793,5.85637 7.01259,7.97242 4.07702,6.27584 8.23022,14.97815 8.23022,14.97815 l 9.10581,12.10337 c 0.26868,0.48746 0.15258,1.13527 -0.26015,1.45254 l -2.37393,2.94495 c -0.32678,0.40539 -0.96164,0.18014 -1.23036,-0.30713 l -7.17061,-13.69391 c 0,0 -5.13718,-10.77281 -8.85495,-17.49544 -1.15633,-2.09094 -4.10711,-4.59503 -5.9717,-7.69564 -4.13032,-6.86827 -9.35937,-13.33392 -9.35937,-13.33392 z"
         sodipodi:nodetypes="czscccsccsscc" /></g></g></svg>
