<?xml version="1.0" encoding="UTF-8" standalone="no"?>
<!-- Created with Inkscape (http://www.inkscape.org/) -->

<svg
   width="53.384464mm"
   height="47.859749mm"
   viewBox="0 0 53.384464 47.859749"
   version="1.1"
   id="svg1"
   inkscape:version="1.3.2 (091e20e, 2023-11-25, custom)"
   sodipodi:docname="Burger Pictures Master.svg"
   xml:space="preserve"
   inkscape:export-filename="Working Version\images\topk.png"
   inkscape:export-xdpi="96"
   inkscape:export-ydpi="96"
   xmlns:inkscape="http://www.inkscape.org/namespaces/inkscape"
   xmlns:sodipodi="http://sodipodi.sourceforge.net/DTD/sodipodi-0.dtd"
   xmlns:xlink="http://www.w3.org/1999/xlink"
   xmlns="http://www.w3.org/2000/svg"
   xmlns:svg="http://www.w3.org/2000/svg"><sodipodi:namedview
     id="namedview1"
     pagecolor="#ffffff"
     bordercolor="#eeeeee"
     borderopacity="1"
     inkscape:showpageshadow="0"
     inkscape:pageopacity="0"
     inkscape:pagecheckerboard="0"
     inkscape:deskcolor="#d1d1d1"
     inkscape:document-units="mm"
     inkscape:zoom="0.35100709"
     inkscape:cx="1264.9317"
     inkscape:cy="650.984"
     inkscape:window-width="2560"
     inkscape:window-height="991"
     inkscape:window-x="1009"
     inkscape:window-y="2151"
     inkscape:window-maximized="1"
     inkscape:current-layer="layer1"
     inkscape:lockguides="true" /><defs
     id="defs1"><linearGradient
       id="linearGradient59"
       inkscape:collect="always"><stop
         style="stop-color:#a38b28;stop-opacity:1;"
         offset="0"
         id="stop59" /><stop
         style="stop-color:#7b6300;stop-opacity:1;"
         offset="1"
         id="stop60" /></linearGradient><linearGradient
       inkscape:collect="always"
       xlink:href="#linearGradient59"
       id="linearGradient60"
       x1="575.20062"
       y1="80.050751"
       x2="574.82214"
       y2="72.921799"
       gradientUnits="userSpaceOnUse"
       gradientTransform="matrix(-0.22187243,0.28942465,-0.31327394,-0.23713394,605.63373,-69.296481)" /></defs><g
     inkscape:label="Layer 1"
     inkscape:groupmode="layer"
     id="layer1"
     transform="translate(-404.1937,-39.100013)"><path
       id="rect59"
       style="opacity:1;fill:url(#linearGradient60);stroke-width:0.939885"
       d="m 457.55326,75.249696 c -0.0763,0.09956 -1.25613,2.103213 -1.94571,3.164454 -0.68958,1.061243 -1.43391,2.343409 -2.19404,3.199003 -0.76013,0.855589 -2.15632,1.890071 -2.25097,1.973039 -0.0947,0.08296 -0.54306,0.108921 -0.67172,0.06564 -0.12866,-0.04332 -2.84265,-0.956487 -2.97133,-0.999778 -0.12865,-0.04332 -0.19185,-0.560312 -0.11472,-0.660934 0.0772,-0.10062 7.55532,-9.85565 7.63245,-9.956272 0.0772,-0.10062 0.59726,-0.178426 0.67173,-0.06564 0.0745,0.112745 1.65512,2.506765 1.72958,2.61955 0.0745,0.112745 0.19107,0.561399 0.11473,0.660938 z"
       sodipodi:nodetypes="zzzzzzzzzzz" /><path
       id="path58"
       style="opacity:1;fill:#d1b545;fill-opacity:1;stroke-width:1.20211"
       d="m 419.08716,81.829725 c -9.32641,-7.059664 -12.31508,-19.20616 -7.75322,-28.902399 0.65927,-1.401251 -8.04173,-12.167333 -7.06342,-13.443501 0.54454,-0.710335 3.31633,-0.571951 6.84965,1.595639 2.9061,1.7828 5.88464,4.402228 6.68354,3.783866 8.1981,-6.345406 20.29808,-6.478497 29.34087,0.366493 10.67424,8.079892 13.04653,22.823118 5.29869,32.929904 -7.74785,10.106778 -22.68189,11.749894 -33.35611,3.669998 z"
       sodipodi:nodetypes="ssssssss" /><path
       id="path58-4"
       style="fill:#d7be5c;fill-opacity:1;stroke-width:1.08994"
       d="m 421.58283,78.574207 c -9.32642,-7.059658 -13.16807,-18.093455 -9.74098,-26.309415 0.49528,-1.187346 -7.00609,-10.978197 -6.20182,-12.027327 0.47024,-0.613411 4.02075,1.0906 7.3654,2.970622 1.06689,0.599702 3.52407,2.911825 4.18764,2.451795 7.11496,-4.93251 18.41304,-4.019532 27.45584,2.82545 10.67424,8.079904 14.16388,21.365574 7.79436,29.674395 -6.36952,8.308808 -20.18621,8.494382 -30.86044,0.41448 z"
       sodipodi:nodetypes="ssssssss" /><path
       id="path58-4-0"
       style="fill:#d0b342;fill-opacity:1;stroke-width:0.880404"
       d="m 425.59103,73.345645 c -9.3264,-7.059665 -14.15744,-16.918379 -12.55286,-22.756936 0.23189,-0.843759 -6.31359,-8.376272 -5.78883,-9.060797 0.27899,-0.363952 3.34952,0.876206 5.11167,2.175272 2.24944,1.658285 2.7674,4.133018 3.31119,3.863591 5.37539,-2.663303 15.92571,-0.697863 24.96851,6.147115 10.67421,8.079908 15.95841,19.024665 11.80256,24.445837 -4.15585,5.421153 -16.178,3.26582 -26.85224,-4.814082 z"
       sodipodi:nodetypes="ssssssss" /><path
       id="path58-4-0-2"
       style="fill:#d8bf5f;fill-opacity:1;stroke-width:0.614666"
       d="m 429.44797,68.314402 c -9.3264,-7.059664 -15.85627,-14.586768 -16.00543,-18.137641 -0.0216,-0.513152 0.58488,-0.864897 0.84062,-1.198569 0.30962,-0.403877 0.7263,-0.984891 1.39409,-1.071435 3.70142,-0.479716 12.06368,3.993393 21.10647,10.838373 10.67423,8.0799 17.68524,16.772098 15.65953,19.414578 -2.02573,2.642474 -12.32106,-1.765432 -22.9953,-9.845323 z"
       sodipodi:nodetypes="sssssss" /></g></svg>
