<?xml version="1.0" encoding="UTF-8" standalone="no"?>
<!-- Created with Inkscape (http://www.inkscape.org/) -->

<svg
   width="59.798351mm"
   height="46.261082mm"
   viewBox="0 0 59.798351 46.261082"
   version="1.1"
   id="svg1"
   inkscape:version="1.3.2 (091e20e, 2023-11-25, custom)"
   sodipodi:docname="Burger Pictures Master.svg"
   xml:space="preserve"
   inkscape:export-filename="Working Version\images\topk.png"
   inkscape:export-xdpi="96"
   inkscape:export-ydpi="96"
   xmlns:inkscape="http://www.inkscape.org/namespaces/inkscape"
   xmlns:sodipodi="http://sodipodi.sourceforge.net/DTD/sodipodi-0.dtd"
   xmlns="http://www.w3.org/2000/svg"
   xmlns:svg="http://www.w3.org/2000/svg"><sodipodi:namedview
     id="namedview1"
     pagecolor="#ffffff"
     bordercolor="#eeeeee"
     borderopacity="1"
     inkscape:showpageshadow="0"
     inkscape:pageopacity="0"
     inkscape:pagecheckerboard="0"
     inkscape:deskcolor="#d1d1d1"
     inkscape:document-units="mm"
     inkscape:zoom="0.35100709"
     inkscape:cx="1264.9317"
     inkscape:cy="650.984"
     inkscape:window-width="2560"
     inkscape:window-height="991"
     inkscape:window-x="1009"
     inkscape:window-y="2151"
     inkscape:window-maximized="1"
     inkscape:current-layer="layer1"
     inkscape:lockguides="true" /><defs
     id="defs1" /><g
     inkscape:label="Layer 1"
     inkscape:groupmode="layer"
     id="layer1"
     transform="translate(-400.57383,23.726001)"><g
       id="g61"
       transform="matrix(-0.45388801,0.30271464,0.30271464,0.45388801,633.86469,-234.18279)"><path
         style="font-variation-settings:normal;opacity:1;fill:#588921;fill-opacity:1;stroke:none;stroke-width:2.483;stroke-linecap:butt;stroke-linejoin:miter;stroke-miterlimit:4;stroke-dasharray:none;stroke-dashoffset:0;stroke-opacity:1"
         d="m 485.90765,140.76905 c 0.37688,-0.32978 4.88297,-3.50965 9.61075,-4.24003 4.72778,-0.73038 10.66361,0.85823 18.09078,1.97868 7.42717,1.12046 18.96817,4.3994 26.38242,5.08804 7.41425,0.68864 11.91412,0.93321 17.80815,-0.0942 5.89403,-1.02741 14.41607,-5.84181 17.05433,-6.03026 2.63826,-0.18845 7.2978,-0.92723 11.87209,-1.13068 4.57429,-0.20344 11.08058,-2.26775 15.54679,0.0942 4.46621,2.36198 8.33157,6.28353 8.38583,12.15476 0.0543,5.87123 -5.07173,11.82674 -11.30673,17.05435 -6.235,5.22761 -16.28869,9.04189 -26.00552,11.30675 -9.71683,2.26486 -20.84315,2.10851 -31.47047,1.50757 -10.62732,-0.60094 -23.99876,-2.51473 -31.94158,-5.18226 -7.94282,-2.66753 -15.54677,-8.00895 -15.82944,-8.38584 -0.28267,-0.37689 -8.36077,-8.50422 -9.89341,-12.3432 -1.53264,-3.83898 -1.41086,-6.93497 -0.7538,-8.95118 0.65706,-2.01621 2.07293,-2.49694 2.44981,-2.82672 z"
         id="path60"
         sodipodi:nodetypes="zzzzzzzzzzzzzzzzz" /><path
         id="rect58-3-9"
         style="fill:#67a327;fill-opacity:1;stroke-width:1.58718"
         d="m 524.95818,159.00889 c 0,0 -2.46446,-0.88137 -6.8855,-2.41346 -4.42103,-1.5321 -8.5311,-2.05653 -10.48103,-2.82385 -5.78318,-2.2757 -12.13528,-6.03848 -12.13528,-6.03848 l -10.75133,-3.0884 c -0.41675,-0.19991 -0.65074,-0.69381 -0.52479,-1.10736 l -0.41019,-0.99178 c -0.16526,-0.39956 1.5104,-2.49411 1.92708,-2.29435 l 9.85707,4.86148 c 0,0 8.01597,4.68773 13.77181,7.43875 1.79023,0.85566 6.8879,1.94229 9.64392,3.13884 6.10497,2.65046 14.33158,4.6868 14.33158,4.6868 z"
         sodipodi:nodetypes="czscccsccsscc" /><path
         id="path61"
         style="opacity:1;fill:#4a731c;stroke-width:2.25838"
         d="m 571.58961,153.77327 c -0.2877,1.2742 -1.1296,1.34424 -2.97722,0.92703 -1.84762,-0.41721 -3.11216,-1.78836 -2.82444,-3.06256 0.28773,-1.27419 2.01876,-1.96889 3.86638,-1.55169 1.84761,0.41721 2.223,2.41303 1.93528,3.68722 z"
         sodipodi:nodetypes="sssss" /><path
         id="path61-8"
         style="fill:#4a731c;stroke-width:2.25838"
         d="m 577.60705,149.06465 c -0.2877,1.2742 -1.1296,1.34424 -2.97722,0.92703 -1.84762,-0.41721 -3.11216,-1.78836 -2.82444,-3.06256 0.28773,-1.27419 2.01876,-1.96889 3.86638,-1.55169 1.84761,0.41721 2.223,2.41303 1.93528,3.68722 z"
         sodipodi:nodetypes="sssss" /><path
         id="path61-7"
         style="fill:#4a731c;stroke-width:2.483"
         d="m 551.2457,157.62471 c 1.72744,0.0829 2.02774,0.83392 1.94479,2.56136 -0.0829,1.72744 -1.55055,3.06056 -3.27799,2.97762 -1.72743,-0.0829 -3.06055,-1.55055 -2.97761,-3.27799 0.0829,-1.72743 2.58338,-2.34394 4.31081,-2.26099 z"
         sodipodi:nodetypes="sssss" /><path
         id="path61-7-3"
         style="fill:#4a731c;stroke-width:2.483"
         d="m 541.9554,166.10959 c 1.72744,0.0829 2.21614,-0.29676 2.13324,1.43068 -0.0829,1.72744 -1.20324,0.62938 -3.27799,2.97762 -1.14508,1.29602 -3.06055,-1.55055 -2.97761,-3.27799 0.0829,-1.72743 2.39493,-1.21326 4.12236,-1.13031 z"
         sodipodi:nodetypes="sssss" /><path
         id="path61-7-3-3"
         style="fill:#4a731c;stroke-width:1.6689"
         d="m 529.04219,173.69662 c -0.59315,-0.96361 -0.99029,-1.07854 0.0234,-1.70971 1.01365,-0.6312 0.80412,0.40238 2.90933,0.60205 1.16188,0.11021 0.25211,2.2565 -0.76159,2.88765 -1.01364,0.63119 -1.57805,-0.81634 -2.17113,-1.77999 z"
         sodipodi:nodetypes="sssss" /><path
         id="rect58-9"
         style="fill:#67a327;fill-opacity:1;stroke-width:1.58718"
         d="m 535.23448,169.77782 c 0,0 -9.50603,0.69659 -15.08765,-0.89497 -5.58162,-1.59155 -15.23286,-3.56542 -16.91954,-4.80888 -5.00236,-3.68786 -13.25247,-9.09286 -13.25247,-9.09286 l -5.49563,-10.57074 c -0.35125,-0.30047 -0.4502,-0.83797 -0.22202,-1.20514 l 0.98525,-2.98268 c 0.13562,-0.41059 0.69493,-0.4209 1.04616,-0.12058 l 4.45582,12.3724 c 0,0 9.61977,6.72716 14.47335,10.86726 1.50961,1.2877 12.05107,3.72268 14.9931,4.33238 7.66663,1.58882 10.55774,1.50728 10.55774,1.50728 z"
         sodipodi:nodetypes="czscccsccsscc" /><path
         id="path61-7-9"
         style="fill:#4a731c;stroke-width:2.23918"
         d="m 559.01801,148.97862 c 1.72744,0.0674 2.02774,0.67818 1.94479,2.08302 -0.0829,1.40484 -1.55055,2.489 -3.27799,2.42155 -1.72743,-0.0674 -3.06055,-1.26098 -2.97761,-2.66582 0.0829,-1.40483 2.58338,-1.90621 4.31081,-1.83875 z"
         sodipodi:nodetypes="sssss" /><path
         id="path61-7-9-99"
         style="fill:#4a731c;stroke-width:1.50085"
         d="m 561.75533,157.41347 c 1.28625,0.0407 1.50985,0.40918 1.44809,1.25681 -0.0617,0.84762 -1.15454,1.50175 -2.44078,1.46106 -1.28625,-0.0407 -2.27888,-0.76083 -2.21713,-1.60845 0.0617,-0.84761 1.92358,-1.15013 3.20982,-1.10942 z"
         sodipodi:nodetypes="sssss" /><path
         id="path61-7-9-9"
         style="fill:#4a731c;stroke-width:1.87053"
         d="m 525.5666,163.7304 c 1.38898,0.0585 1.63044,0.58858 1.56374,1.8078 -0.0667,1.21923 -1.24674,2.16015 -2.63572,2.10161 -1.38896,-0.0585 -2.46088,-1.09438 -2.39419,-2.3136 0.0667,-1.21922 2.07721,-1.65436 3.46617,-1.59581 z"
         sodipodi:nodetypes="sssss" /><path
         id="rect58-9-3"
         style="fill:#67a327;fill-opacity:1;stroke-width:1.58718"
         d="m 530.65427,150.89581 c 0,0 -5.4643,-0.74459 -10.51941,-1.64721 -5.05511,-0.90262 -7.84866,-4.00919 -9.89344,-4.46735 -6.06445,-1.35876 -12.59097,-3.63828 -12.59097,-3.63828 l -12.32469,1.43142 c -0.44256,-0.13341 -0.74977,-0.58542 -0.68895,-1.01342 l 0.80661,-1.5721 c 0.1974,-0.38473 1.57867,-0.85702 2.02116,-0.72374 l 9.87982,-0.72649 c 0,0 8.31288,2.93746 14.42348,4.77008 1.90057,0.57002 6.20744,4.14917 9.11474,4.90738 6.44009,1.67957 13.29872,2.48212 13.29872,2.48212 z"
         sodipodi:nodetypes="czscccsccsscc" /><path
         id="path61-7-9-9-0"
         style="fill:#4a731c;stroke-width:1.91939"
         d="m 524.22389,147.56723 c -1.4828,-0.27756 -1.69717,-0.83048 -1.52394,-2.00335 0.17318,-1.17288 1.51569,-1.89862 2.99848,-1.62102 1.48279,0.27756 2.54442,1.45344 2.3712,2.62632 -0.17318,1.17286 -2.36295,1.27566 -3.84574,0.99805 z"
         sodipodi:nodetypes="sssss" /><path
         id="path61-7-7"
         style="fill:#4a731c;stroke-width:2.483"
         d="m 561.23445,170.86857 c -0.39575,1.68354 -1.18886,1.84222 -2.87239,1.44642 -1.68354,-0.39576 -2.72744,-2.08142 -2.33165,-3.76495 0.39575,-1.68353 2.08141,-2.72743 3.76494,-2.33164 1.68353,0.39574 1.8349,2.96665 1.4391,4.65017 z"
         sodipodi:nodetypes="sssss" /><path
         id="path61-7-7-0"
         style="fill:#4a731c;stroke-width:2.21475"
         d="m 537.37701,159.89039 c -1.00899,0.66489 -1.86605,0.22634 -3.41986,-1.10814 -1.55383,-1.33447 -1.99544,-2.95526 -0.98641,-3.62012 1.00899,-0.66489 3.08661,-0.12203 4.64042,1.21244 1.55384,1.33444 0.77489,2.85096 -0.23415,3.51582 z"
         sodipodi:nodetypes="sssss" /><path
         id="path61-7-7-0-5"
         style="fill:#4a731c;stroke-width:1.47973"
         d="m 508.0226,169.82449 c -0.0822,-0.72172 0.50653,-1.05093 1.92777,-1.49517 1.42125,-0.44426 2.63996,-0.2193 2.72208,0.50243 0.0822,0.72171 -1.00346,1.66693 -2.42469,2.11118 -1.42123,0.44427 -2.14305,-0.39671 -2.22516,-1.11844 z"
         sodipodi:nodetypes="sssss" /><path
         id="path61-7-7-0-1"
         style="fill:#4a731c;stroke-width:1.97754"
         d="m 586.9997,155.5382 c -0.97762,0.5471 -1.80804,0.18625 -3.31354,-0.91182 -1.50553,-1.09806 -1.93341,-2.43171 -0.95575,-2.97878 0.97763,-0.5471 2.99066,-0.10041 4.49616,0.99764 1.50554,1.09803 0.7508,2.34589 -0.22687,2.89296 z"
         sodipodi:nodetypes="sssss" /><path
         id="path61-7-7-0-1-1"
         style="fill:#4a731c;stroke-width:1.51784"
         d="m 589.89257,147.64818 c -0.63384,0.49712 -1.17223,0.16923 -2.14831,-0.82853 -0.97609,-0.99776 -1.2535,-2.20959 -0.61965,-2.70669 0.63384,-0.49712 1.93897,-0.0912 2.91504,0.90651 0.97611,0.99773 0.48678,2.13161 -0.14708,2.62871 z"
         sodipodi:nodetypes="sssss" /><path
         id="path61-6"
         style="fill:#4a731c;stroke-width:1.22467"
         d="m 567.87466,145.53316 c -0.21495,0.69429 -0.68291,0.7658 -1.68475,0.61684 -1.00184,-0.14897 -1.63975,-0.83256 -1.4248,-1.52686 0.21495,-0.69429 1.20136,-1.13636 2.2032,-0.9874 1.00184,0.14896 1.12129,1.20313 0.90635,1.89742 z"
         sodipodi:nodetypes="sssss" /><path
         id="path61-7-9-6"
         style="fill:#4a731c;stroke-width:2.23918"
         d="m 580.72893,160.34837 c 1.67486,0.42828 1.84035,1.08847 1.46453,2.44465 -0.37576,1.35619 -2.03819,2.10834 -3.71304,1.68001 -1.67485,-0.42828 -2.72792,-1.87497 -2.35212,-3.23115 0.37576,-1.35618 2.92578,-1.32185 4.60063,-0.89351 z"
         sodipodi:nodetypes="sssss" /><path
         id="path61-7-7-1"
         style="fill:#4a731c;stroke-width:2.483"
         d="m 569.19358,167.58007 c -0.74012,1.56306 -1.54887,1.55183 -3.1119,0.81167 -1.56306,-0.74013 -2.23011,-2.60727 -1.48996,-4.17031 0.74011,-1.56305 2.60726,-2.23011 4.1703,-1.48995 1.56305,0.7401 1.17172,3.28556 0.43156,4.84859 z"
         sodipodi:nodetypes="sssss" /><path
         id="path61-7-7-0-52"
         style="fill:#4a731c;stroke-width:1.77273"
         d="m 548.24633,151.88624 c -1.0694,0.29576 -1.77789,-0.11479 -2.95487,-1.21486 -1.17701,-1.10007 -1.26418,-2.2316 -0.19474,-2.52733 1.06942,-0.29576 2.89053,0.35631 4.06751,1.45638 1.17703,1.10005 0.15156,1.99008 -0.9179,2.28581 z"
         sodipodi:nodetypes="sssss" /><path
         id="path61-7-7-0-52-4"
         style="fill:#4a731c;stroke-width:1.77273"
         d="m 535.9943,146.93298 c 0.2456,-1.08202 0.94257,-1.51183 2.46868,-2.02799 1.52613,-0.51618 2.56416,-0.0574 2.31852,1.02461 -0.24561,1.08204 -1.68194,2.37765 -3.20805,2.89381 -1.52612,0.51621 -1.82481,-0.80837 -1.57915,-1.89043 z"
         sodipodi:nodetypes="sssss" /><path
         id="path61-7-7-0-1-7"
         style="fill:#4a731c;stroke-width:1.55619"
         d="m 595.87622,156.72881 c -0.82411,0.29576 -1.37008,-0.11478 -2.27708,-1.21485 -0.90702,-1.10008 -0.9742,-2.2316 -0.15007,-2.52733 0.82411,-0.29575 2.2275,0.35631 3.1345,1.45638 0.90704,1.10005 0.1168,1.99007 -0.70735,2.2858 z"
         sodipodi:nodetypes="sssss" /><path
         id="path61-7-9-99-0"
         style="fill:#4a731c;stroke-width:1.50085"
         d="m 589.81077,167.70241 c 1.28625,0.0407 1.50985,0.40918 1.44809,1.25681 -0.0617,0.84762 -1.15454,1.50175 -2.44078,1.46106 -1.28625,-0.0407 -2.27888,-0.76083 -2.21713,-1.60845 0.0617,-0.84761 1.92358,-1.15013 3.20982,-1.10942 z"
         sodipodi:nodetypes="sssss" /><path
         id="path61-7-7-0-5-1"
         style="fill:#4a731c;stroke-width:1.47973"
         d="m 543.07373,177.11527 c -0.0822,-0.72172 0.50653,-1.05093 1.92777,-1.49517 1.42125,-0.44426 2.63996,-0.2193 2.72208,0.50243 0.0822,0.72171 -1.00346,1.66693 -2.42469,2.11118 -1.42123,0.44427 -2.14305,-0.39671 -2.22516,-1.11844 z"
         sodipodi:nodetypes="sssss" /><path
         id="path61-7-7-0-1-7-3"
         style="fill:#4a731c;stroke-width:1.55619"
         d="m 573.36277,176.27872 c -0.82411,0.29576 -1.37008,-0.11478 -2.27708,-1.21485 -0.90702,-1.10008 -0.9742,-2.2316 -0.15007,-2.52733 0.82411,-0.29575 2.2275,0.35631 3.1345,1.45638 0.90704,1.10005 0.1168,1.99007 -0.70735,2.2858 z"
         sodipodi:nodetypes="sssss" /><path
         id="path61-7-3-2"
         style="fill:#4a731c;stroke-width:2.03346"
         d="m 506.82353,149.27915 c -1.29905,-0.45579 -1.75084,-0.25478 -1.32672,-1.64986 0.42433,-1.39528 1.0485,-0.24493 3.1205,-1.70104 1.14357,-0.80364 2.00808,1.95642 1.5837,3.3517 -0.42433,1.39528 -2.07869,0.45523 -3.37771,-5.9e-4 z"
         sodipodi:nodetypes="sssss" /><path
         id="path61-7-9-9-0-5"
         style="fill:#4a731c;stroke-width:2.23918"
         d="m 500.72994,156.90212 c -0.86547,-1.49651 -0.50942,-2.07657 0.72264,-2.75662 1.23204,-0.68009 2.93241,-0.0182 3.79783,1.47839 0.86546,1.4965 0.5682,3.26101 -0.66386,3.94107 -1.23203,0.68008 -2.9912,-1.1663 -3.85661,-2.66284 z"
         sodipodi:nodetypes="sssss" /><path
         id="path61-1"
         style="fill:#4d7a1e;fill-opacity:1;stroke-width:1.82934"
         d="m 571.33096,153.52325 c -0.24891,0.96636 -0.97728,1.01948 -2.57576,0.70306 -1.59848,-0.31641 -2.69251,-1.35629 -2.44358,-2.32264 0.24893,-0.96635 1.74654,-1.49321 3.34502,-1.17681 1.59847,0.31642 1.92324,1.83005 1.67432,2.79639 z"
         sodipodi:nodetypes="sssss" /><path
         id="path61-8-0"
         style="fill:#4d7a1e;fill-opacity:1;stroke-width:1.38881"
         d="m 576.69968,148.36549 c -0.19071,0.72692 -0.7488,0.76688 -1.97357,0.52886 -1.22477,-0.23801 -2.06302,-1.02024 -1.8723,-1.74715 0.19074,-0.72692 1.33822,-1.12323 2.56299,-0.88523 1.22476,0.23802 1.47361,1.37661 1.28288,2.10352 z"
         sodipodi:nodetypes="sssss" /><path
         id="path61-7-4"
         style="fill:#4d7a1e;fill-opacity:1;stroke-width:1.93774"
         d="m 550.81235,158.29323 c 1.34207,0.065 1.57538,0.65372 1.51093,2.00788 -0.0644,1.35417 -1.20464,2.39922 -2.5467,2.3342 -1.34206,-0.065 -2.37778,-1.2155 -2.31334,-2.56966 0.0644,-1.35416 2.00706,-1.83745 3.34911,-1.77242 z"
         sodipodi:nodetypes="sssss" /><path
         id="path61-7-3-34"
         style="fill:#4d7a1e;fill-opacity:1;stroke-width:1.93023"
         d="m 541.6075,166.68156 c 1.36015,0.0636 1.74494,-0.22776 1.67966,1.09807 -0.0653,1.32582 -0.9474,0.48305 -2.58101,2.28535 -0.9016,0.99471 -2.4098,-1.19006 -2.34449,-2.51589 0.0653,-1.32582 1.88571,-0.93119 3.24584,-0.86753 z"
         sodipodi:nodetypes="sssss" /><path
         id="path61-7-3-3-9"
         style="fill:#4d7a1e;fill-opacity:1;stroke-width:1.29043"
         d="m 529.42453,173.56958 c -0.4477,-0.76328 -0.74746,-0.85432 0.0177,-1.35427 0.7651,-0.49998 0.60694,0.31873 2.19595,0.47688 0.87698,0.0873 0.19029,1.78739 -0.57485,2.28732 -0.76509,0.49997 -1.1911,-0.64662 -1.63876,-1.40993 z"
         sodipodi:nodetypes="sssss" /><path
         id="path61-7-9-5"
         style="fill:#4d7a1e;fill-opacity:1;stroke-width:1.82295"
         d="m 558.9055,149.44752 c 1.47053,0.0525 1.72616,0.52802 1.65555,1.6218 -0.0706,1.09377 -1.31994,1.93788 -2.79047,1.88536 -1.47051,-0.0525 -2.60536,-0.98177 -2.53476,-2.07555 0.0706,-1.09377 2.19917,-1.48413 3.66968,-1.43161 z"
         sodipodi:nodetypes="sssss" /><path
         id="path61-7-9-99-6"
         style="fill:#4d7a1e;fill-opacity:1;stroke-width:1.06908"
         d="m 561.55115,157.81583 c 0.99264,0.0268 1.16519,0.26903 1.11753,0.82633 -0.0476,0.5573 -0.89099,0.98738 -1.88361,0.96063 -0.99263,-0.0268 -1.75867,-0.50024 -1.71101,-1.05753 0.0476,-0.55729 1.48447,-0.75619 2.47709,-0.72943 z"
         sodipodi:nodetypes="sssss" /><path
         id="path61-7-9-9-7"
         style="fill:#4d7a1e;fill-opacity:1;stroke-width:1.48589"
         d="m 525.39625,164.20268 c 1.15041,0.0446 1.3504,0.44842 1.29515,1.37733 -0.0552,0.9289 -1.0326,1.64576 -2.18301,1.60116 -1.15041,-0.0446 -2.03821,-0.83378 -1.98298,-1.76268 0.0553,-0.9289 1.72043,-1.26041 2.87084,-1.21581 z"
         sodipodi:nodetypes="sssss" /><path
         id="path61-7-9-9-2"
         style="fill:#4a731c;stroke-width:1.87053"
         d="m 515.7359,159.15874 c 1.38898,0.0585 1.63044,0.58858 1.56374,1.8078 -0.0667,1.21923 -1.24674,2.16015 -2.63572,2.10161 -1.38896,-0.0585 -2.46088,-1.09438 -2.39419,-2.3136 0.0667,-1.21922 2.07721,-1.65436 3.46617,-1.59581 z"
         sodipodi:nodetypes="sssss" /><path
         id="path61-7-9-9-7-8"
         style="fill:#4d7a1e;fill-opacity:1;stroke-width:1.46199"
         d="m 515.47388,159.63102 c 1.11371,0.0446 1.30732,0.44842 1.25384,1.37733 -0.0535,0.9289 -0.99966,1.64576 -2.11338,1.60116 -1.1137,-0.0446 -1.97318,-0.83378 -1.9197,-1.76268 0.0535,-0.9289 1.66554,-1.26041 2.77924,-1.21581 z"
         sodipodi:nodetypes="sssss" /><path
         id="path61-7-9-9-0-9"
         style="fill:#4d7a1e;fill-opacity:1;stroke-width:1.42696"
         d="m 524.38656,147.07405 c -1.13769,-0.19994 -1.30217,-0.59825 -1.16926,-1.44315 0.13288,-0.84492 1.16293,-1.36772 2.3006,-1.16774 1.13768,0.19994 1.95223,1.04702 1.81932,1.89193 -0.13287,0.84489 -1.81299,0.91895 -2.95066,0.71896 z"
         sodipodi:nodetypes="sssss" /><path
         id="path61-7-7-7"
         style="fill:#4d7a1e;fill-opacity:1;stroke-width:1.94115"
         d="m 560.73313,170.7314 c -0.31862,1.27798 -0.95717,1.39844 -2.31262,1.09798 -1.35546,-0.30042 -2.19592,-1.58001 -1.87726,-2.85799 0.31862,-1.27798 1.67579,-2.07041 3.03123,-1.76996 1.35545,0.30041 1.47732,2.252 1.15865,3.52997 z"
         sodipodi:nodetypes="sssss" /><path
         id="path61-7-7-0-9"
         style="fill:#4d7a1e;fill-opacity:1;stroke-width:1.71723"
         d="m 536.92729,159.43799 c -0.80937,0.49831 -1.49687,0.16963 -2.74327,-0.83051 -1.24642,-1.00013 -1.60066,-2.21485 -0.79126,-2.71313 0.80937,-0.49831 2.47595,-0.0915 3.72236,0.90867 1.24642,1.00011 0.62158,2.13668 -0.18783,2.63497 z"
         sodipodi:nodetypes="sssss" /><path
         id="path61-7-7-0-5-0"
         style="fill:#4d7a1e;fill-opacity:1;stroke-width:1.05581"
         d="m 508.54984,169.68605 c -0.0611,-0.49469 0.37622,-0.72034 1.43184,-1.02484 1.05562,-0.30451 1.96081,-0.15032 2.0218,0.34438 0.0611,0.49469 -0.74531,1.14258 -1.80092,1.44708 -1.05561,0.30452 -1.59174,-0.27192 -1.65272,-0.76662 z"
         sodipodi:nodetypes="sssss" /><path
         id="path61-7-7-0-5-3"
         style="fill:#4a731c;stroke-width:1.47973"
         d="m 522.13427,152.79809 c 0.40849,-0.60064 1.06946,-0.46612 2.43647,0.12428 1.36702,0.59039 2.14399,1.55589 1.73543,2.15648 -0.40849,0.60064 -1.84794,0.60886 -3.21495,0.0185 -1.36701,-0.59037 -1.36552,-1.69864 -0.95695,-2.29924 z"
         sodipodi:nodetypes="sssss" /><path
         id="path61-7-7-0-5-0-9"
         style="fill:#4d7a1e;fill-opacity:1;stroke-width:1.16665"
         d="m 522.4877,152.99606 c 0.30611,-0.49824 0.80141,-0.38665 1.8258,0.1031 1.02439,0.48973 1.60662,1.29063 1.30046,1.78883 -0.30611,0.49824 -1.38477,0.50506 -2.40916,0.0154 -1.02438,-0.48973 -1.02326,-1.40905 -0.7171,-1.90726 z"
         sodipodi:nodetypes="sssss" /><path
         id="path61-7-7-0-5-3-3"
         style="fill:#4a731c;stroke-width:1.47973"
         d="m 512.37741,151.30999 c 0.0648,-0.72349 0.70775,-0.92742 2.18934,-1.0764 1.48158,-0.149 2.63005,0.31673 2.56516,1.04021 -0.0648,0.72348 -1.31853,1.43075 -2.80009,1.57977 -1.48157,0.14902 -2.01929,-0.82007 -1.9544,-1.54356 z"
         sodipodi:nodetypes="sssss" /><path
         id="path61-7-7-0-5-0-9-9"
         style="fill:#4d7a1e;fill-opacity:1;stroke-width:1.00884"
         d="m 513.00054,151.36622 c 0.043,-0.50629 0.47012,-0.64899 1.45424,-0.75325 0.98412,-0.10426 1.74698,0.22165 1.70387,0.72792 -0.043,0.50629 -0.87581,1.00121 -1.85992,1.1055 -0.98411,0.10427 -1.34128,-0.57387 -1.29818,-1.08016 z"
         sodipodi:nodetypes="sssss" /><path
         id="path61-7-7-0-1-17"
         style="fill:#4d7a1e;fill-opacity:1;stroke-width:1.35417"
         d="m 586.38142,154.82698 c -0.68928,0.36385 -1.27478,0.12386 -2.33624,-0.60643 -1.06149,-0.73028 -1.36317,-1.61725 -0.67387,-1.98109 0.68929,-0.36386 2.1086,-0.0668 3.17007,0.6635 1.06149,0.73026 0.52935,1.56018 -0.15996,1.92402 z"
         sodipodi:nodetypes="sssss" /><path
         id="path61-7-7-0-1-1-7"
         style="fill:#4d7a1e;fill-opacity:1;stroke-width:0.998414"
         d="m 589.38847,147.19962 c -0.42313,0.32221 -0.78254,0.10968 -1.43413,-0.53702 -0.6516,-0.6467 -0.83679,-1.43215 -0.41366,-1.75435 0.42313,-0.32221 1.29439,-0.0591 1.94597,0.58756 0.65162,0.64668 0.32496,1.38161 -0.0982,1.70381 z"
         sodipodi:nodetypes="sssss" /><path
         id="path61-6-1"
         style="fill:#4d7a1e;fill-opacity:1;stroke-width:0.84464"
         d="m 567.49704,145.2303 c -0.1531,0.46369 -0.4864,0.51144 -1.19995,0.41196 -0.71355,-0.0995 -1.1679,-0.55602 -1.0148,-1.01971 0.1531,-0.46368 0.85566,-0.75892 1.56921,-0.65944 0.71355,0.0995 0.79862,0.80351 0.64554,1.26719 z"
         sodipodi:nodetypes="sssss" /><path
         id="path61-7-9-6-7"
         style="fill:#4d7a1e;fill-opacity:1;stroke-width:1.71511"
         d="m 580.31963,160.94845 c 1.33877,0.31435 1.47106,0.79891 1.17065,1.79432 -0.30036,0.99541 -1.62919,1.54746 -2.96795,1.23308 -1.33876,-0.31435 -2.18051,-1.37618 -1.88013,-2.37158 0.30036,-0.9954 2.33867,-0.97021 3.67743,-0.65582 z"
         sodipodi:nodetypes="sssss" /><path
         id="path61-7-7-1-4"
         style="fill:#4d7a1e;fill-opacity:1;stroke-width:1.99865"
         d="m 568.72231,167.29203 c -0.58913,1.27229 -1.23288,1.26315 -2.47704,0.66068 -1.24418,-0.60245 -1.77515,-2.12226 -1.18599,-3.39454 0.58912,-1.27228 2.07535,-1.81525 3.31951,-1.21278 1.24417,0.60242 0.93268,2.67437 0.34352,3.94664 z"
         sodipodi:nodetypes="sssss" /><path
         id="path61-7-7-0-52-1"
         style="fill:#4d7a1e;fill-opacity:1;stroke-width:1.36286"
         d="m 548.04599,151.38246 c -0.86926,0.21505 -1.44515,-0.0835 -2.40186,-0.88335 -0.95673,-0.79988 -1.02759,-1.62263 -0.1583,-1.83766 0.86928,-0.21505 2.34957,0.25908 3.30628,1.05896 0.95675,0.79986 0.12319,1.44702 -0.74612,1.66205 z"
         sodipodi:nodetypes="sssss" /><path
         id="path61-7-7-0-52-4-6"
         style="fill:#4d7a1e;fill-opacity:1;stroke-width:1.28305"
         d="m 536.50159,146.93886 c 0.17547,-0.79336 0.67342,-1.1085 1.76375,-1.48696 1.09034,-0.37848 1.83196,-0.0421 1.65647,0.75126 -0.17548,0.79337 -1.20166,1.74334 -2.29199,2.12179 -1.09034,0.3785 -1.30374,-0.59271 -1.12823,-1.38609 z"
         sodipodi:nodetypes="sssss" /><path
         id="path61-7-7-0-1-7-5"
         style="fill:#4d7a1e;fill-opacity:1;stroke-width:1.11701"
         d="m 595.52998,156.22503 c -0.58394,0.21505 -0.9708,-0.0835 -1.61347,-0.88334 -0.64269,-0.79988 -0.69029,-1.62263 -0.10634,-1.83766 0.58394,-0.21504 1.57834,0.25908 2.22102,1.05896 0.6427,0.79986 0.0828,1.44701 -0.50121,1.66204 z"
         sodipodi:nodetypes="sssss" /><path
         id="path61-7-9-99-0-2"
         style="fill:#4d7a1e;fill-opacity:1;stroke-width:1.14759"
         d="m 589.8816,168.03824 c 1.10274,0.0277 1.29444,0.27903 1.24149,0.85707 -0.0529,0.57804 -0.98982,1.02412 -2.09255,0.99637 -1.10274,-0.0277 -1.95375,-0.51884 -1.90081,-1.09688 0.0529,-0.57802 1.64914,-0.78433 2.75187,-0.75656 z"
         sodipodi:nodetypes="sssss" /><path
         id="path61-7-9-99-0-0"
         style="fill:#4a731c;stroke-width:1.50085"
         d="m 590.95244,159.79656 c 1.28625,0.0407 1.50985,0.40918 1.44809,1.25681 -0.0617,0.84762 -1.15454,1.50175 -2.44078,1.46106 -1.28625,-0.0407 -2.27888,-0.76083 -2.21713,-1.60845 0.0617,-0.84761 1.92358,-1.15013 3.20982,-1.10942 z"
         sodipodi:nodetypes="sssss" /><path
         id="path61-7-9-99-0-2-0"
         style="fill:#4d7a1e;fill-opacity:1;stroke-width:1.06908"
         d="m 590.74826,160.19892 c 0.99264,0.0268 1.16519,0.26903 1.11753,0.82633 -0.0476,0.5573 -0.89099,0.98738 -1.88361,0.96063 -0.99263,-0.0268 -1.75867,-0.50024 -1.71101,-1.05753 0.0476,-0.55729 1.48447,-0.75619 2.47709,-0.72943 z"
         sodipodi:nodetypes="sssss" /><path
         id="path61-7-7-0-5-1-7"
         style="fill:#4d7a1e;fill-opacity:1;stroke-width:1.02832"
         d="m 543.60086,177.00474 c -0.0599,-0.47847 0.36898,-0.69673 1.40429,-0.99125 1.03531,-0.29453 1.92308,-0.14539 1.9829,0.3331 0.0599,0.47847 -0.73097,1.10512 -1.76627,1.39964 -1.0353,0.29454 -1.56111,-0.263 -1.62092,-0.74149 z"
         sodipodi:nodetypes="sssss" /><path
         id="path61-7-7-0-1-7-3-7"
         style="fill:#4d7a1e;fill-opacity:1;stroke-width:1.03874"
         d="m 572.91926,175.78129 c -0.55725,0.19487 -0.92643,-0.0756 -1.53974,-0.80046 -0.61331,-0.72484 -0.65874,-1.47039 -0.10147,-1.66525 0.55725,-0.19486 1.50621,0.23477 2.11952,0.9596 0.61333,0.72482 0.079,1.31125 -0.47831,1.50611 z"
         sodipodi:nodetypes="sssss" /><path
         id="path61-7-7-0-1-7-3-3"
         style="fill:#4a731c;stroke-width:1.55619"
         d="m 600.00119,147.36584 c -0.82411,0.29576 -1.37008,-0.11478 -2.27708,-1.21485 -0.90702,-1.10008 -0.9742,-2.2316 -0.15007,-2.52733 0.82411,-0.29575 2.2275,0.35631 3.1345,1.45638 0.90704,1.10005 0.1168,1.99007 -0.70735,2.2858 z"
         sodipodi:nodetypes="sssss" /><path
         id="path61-7-7-0-1-7-3-7-7"
         style="fill:#4d7a1e;fill-opacity:1;stroke-width:1.03874"
         d="m 599.55768,146.86841 c -0.55725,0.19487 -0.92643,-0.0756 -1.53974,-0.80046 -0.61331,-0.72484 -0.65874,-1.47039 -0.10147,-1.66525 0.55725,-0.19486 1.50621,0.23477 2.11952,0.9596 0.61333,0.72482 0.079,1.31125 -0.47831,1.50611 z"
         sodipodi:nodetypes="sssss" /><path
         id="path61-7-3-2-4"
         style="fill:#4d7a1e;fill-opacity:1;stroke-width:1.57186"
         d="m 507.05477,148.9352 c -1.03775,-0.34092 -1.39866,-0.19057 -1.05985,-1.23406 0.33897,-1.04363 0.83759,-0.1832 2.49282,-1.27233 0.91354,-0.60111 1.60416,1.46335 1.26514,2.50699 -0.33898,1.04363 -1.66057,0.3405 -2.69829,-4.4e-4 z"
         sodipodi:nodetypes="sssss" /><path
         id="path61-7-9-9-0-5-5"
         style="fill:#4d7a1e;fill-opacity:1;stroke-width:1.75255"
         d="m 501.16662,157.04662 c -0.6975,-1.13749 -0.41055,-1.5784 0.58239,-2.0953 0.99292,-0.51694 2.36329,-0.0138 3.06074,1.12372 0.69749,1.13749 0.45793,2.47869 -0.53501,2.9956 -0.99292,0.51693 -2.41067,-0.8865 -3.10812,-2.02402 z"
         sodipodi:nodetypes="sssss" /></g></g></svg>
